PathFileType	4	(X/Y/Z)	E:\Qualisys_Data\Carbon_Farble_Plate\Data\Amateur_Runner\S14\T2\S14T2V12_c3d.trc
DataRate	CameraRate	NumFrames	NumMarkers	Units	OrigDataRate	OrigDataStartFrame	OrigNumFrames
200.000000	200.000000	5	39	mm	200.000000	40	325
Frame#	Time	LSHO			RSHO			LICST			RICST			LASIS			LHEEL			RASIS			LTROC			RTROC			SACR			LTH1			LSK4			LTH2			LTH3			RHM5			LSK2			LTH4			RTH1			LTOE			RTH2			RTH3			RTH4			LLEP			RLEP			LSK1			LSK3			RSK1			LHM5			RSK2			LFT1			RSK3			RSK4			LLME			RLME			RTOE			RHEEL			RFT1			RFT2			LFT2			
		X1	Y1	Z1	X2	Y2	Z2	X3	Y3	Z3	X4	Y4	Z4	X5	Y5	Z5	X6	Y6	Z6	X7	Y7	Z7	X8	Y8	Z8	X9	Y9	Z9	X10	Y10	Z10	X11	Y11	Z11	X12	Y12	Z12	X13	Y13	Z13	X14	Y14	Z14	X15	Y15	Z15	X16	Y16	Z16	X17	Y17	Z17	X18	Y18	Z18	X19	Y19	Z19	X20	Y20	Z20	X21	Y21	Z21	X22	Y22	Z22	X23	Y23	Z23	X24	Y24	Z24	X25	Y25	Z25	X26	Y26	Z26	X27	Y27	Z27	X28	Y28	Z28	X29	Y29	Z29	X30	Y30	Z30	X31	Y31	Z31	X32	Y32	Z32	X33	Y33	Z33	X34	Y34	Z34	X35	Y35	Z35	X36	Y36	Z36	X37	Y37	Z37	X38	Y38	Z38	X39	Y39	Z39	

41	0.2	-2012.400756835938	1401.084350585938	-490.5083618164062	-1985.364379882812	1390.08984375	-182.6651306152344	-2087.6630859375	956.9559936523438	-465.436279296875	-2061.81591796875	965.695556640625	-186.1313781738281	-2040.226806640625	911.2157592773438	-442.9529113769531	-2328.773681640625	421.5304870605469	-372.0886535644531	-2035.718017578125	924.3864135742188	-204.6373748779297	-2162.347412109375	829.3743896484375	-480.4413452148438	-2174.0986328125	839.1554565429688	-159.7794799804688	-2214.40478515625	939.0868530273438	-351.9717712402344	-1996.226928710938	651.9459838867188	-507.1124572753906	-2147.393310546875	470.0362243652344	-463.4945678710938	-2060.268310546875	615.6342163085938	-478.861572265625	-1940.55126953125	569.062255859375	-496.5158081054688	-2207.260498046875	76.83170318603516	-218.5294036865234	-2058.117431640625	504.3873596191406	-488.0048828125	-2008.8681640625	532.316650390625	-471.70751953125	-2033.426147460938	624.1204833984375	-161.78564453125	-2276.44189453125	171.4923706054688	-411.0531921386719	-2110.958740234375	623.941162109375	-159.1200408935547	-2028.592895507812	528.974609375	-197.3500518798828	-2111.0654296875	525.8598022460938	-187.0333862304688	-1967.204223632812	504.3295288085938	-491.0296936035156	-2088.476318359375	454.5429992675781	-198.9325256347656	-2024.893676757812	428.1933898925781	-482.2063903808594	-2120.38232421875	394.3057556152344	-462.5164794921875	-2116.96630859375	333.4819641113281	-205.7025756835938	-2316.305908203125	233.5347595214844	-468.9528503417969	-2189.8876953125	376.1446228027344	-195.7979125976562	-2353.822998046875	403.3323059082031	-350.1286926269531	-2176.728759765625	251.6153869628906	-229.6995239257812	-2238.609375	295.9081115722656	-214.353759765625	-2291.74462890625	377.8285217285156	-440.1214904785156	-2312.173583984375	140.8446350097656	-250.0505981445312	-2127.599853515625	75.56478118896484	-281.8476257324219	-2381.47265625	124.9561767578125	-309.9970092773438	-2370.468505859375	90.82889556884766	-334.2476501464844	-2385.8701171875	98.48897552490234	-280.2044677734375	-2360.87451171875	412.9866333007812	-404.852783203125
42	0.205	-1998.836059570312	1404.98583984375	-491.3127746582031	-1967.21435546875	1394.103637695312	-183.9925994873047	-2070.262451171875	959.8834838867188	-464.2837524414062	-2046.830200195312	968.1620483398438	-186.3191833496094	-2023.171508789062	914.1607666015624	-441.6108093261719	-2307.00927734375	414.7990112304688	-372.489990234375	-2020.386474609375	926.941162109375	-204.3978881835938	-2145.583740234375	833.605224609375	-481.6856384277344	-2159.586669921875	842.0823974609375	-160.501220703125	-2199.572265625	943.6848754882812	-353.1501159667969	-1976.916137695312	657.23095703125	-506.610595703125	-2125.72607421875	469.3128662109375	-463.5586242675781	-2040.746704101562	620.2554321289062	-478.4887084960938	-1919.69970703125	575.4421997070312	-495.4530944824219	-2206.2734375	77.22120666503906	-218.4443664550781	-2036.91552734375	506.8467407226562	-487.0052185058594	-1988.332153320312	538.0694580078125	-471.4383544921875	-2024.0732421875	624.6483154296875	-162.1682281494141	-2241.623779296875	166.6387329101562	-411.3244323730469	-2103.009033203125	626.4766235351562	-160.3671417236328	-2021.283203125	529.9197998046875	-197.8240051269531	-2104.556884765625	528.0543212890625	-187.6296691894531	-1946.801635742188	511.2779846191406	-491.2158508300781	-2083.636474609375	456.4805297851562	-199.3636322021484	-2001.393310546875	430.7313232421875	-481.1734313964844	-2095.153076171875	393.9789123535156	-461.5450744628906	-2112.58837890625	335.9488525390625	-206.0453948974609	-2283.619873046875	226.9450531005859	-469.0051574707031	-2186.613525390625	378.8858032226562	-196.1708221435547	-2330.090576171875	394.6141052246094	-349.5830688476562	-2173.41943359375	254.3621673583984	-229.3803405761719	-2238.154541015625	297.7478332519531	-215.5330200195312	-2265.689697265625	371.3357238769531	-438.7151184082031	-2310.43017578125	144.5626068115234	-250.1650390625	-2127.402587890625	75.5698471069336	-282.0142211914062	-2379.766845703125	129.4427795410156	-310.1051635742188	-2369.133056640625	95.21274566650392	-333.9503173828125	-2383.92919921875	102.4071273803711	-280.205078125	-2338.59521484375	403.7991027832031	-405.3604431152344
43	0.21	-1985.520141601562	1408.87060546875	-491.9586181640625	-1949.20166015625	1398.015991210938	-185.4171905517578	-2054.530029296875	963.8324584960938	-464.3461303710938	-2031.047973632812	971.14111328125	-184.853759765625	-2007.856079101562	918.2012939453124	-441.5213012695312	-2284.85009765625	406.8151245117188	-372.3545837402344	-2003.931274414062	929.1728515625	-203.7385864257812	-2128.670654296875	838.209716796875	-482.9590148925781	-2146.401611328125	845.731689453125	-161.1775665283203	-2183.546875	947.541748046875	-353.7234497070312	-1957.774536132812	662.7368774414062	-506.3470764160156	-2102.98779296875	468.0776977539062	-462.7716674804688	-2021.178955078125	624.8031005859375	-478.7391357421875	-1899.651733398438	581.4157104492188	-494.2739562988281	-2205.677001953125	77.76567840576172	-218.6911010742188	-2015.4521484375	508.6037902832031	-486.1600036621094	-1967.164916992188	542.3297119140625	-470.3282775878906	-2015.758056640625	625.971923828125	-163.2252655029297	-2207.264404296875	161.6899719238281	-410.8687438964844	-2092.989501953125	629.5653076171875	-161.1594390869141	-2014.292236328125	530.7476196289062	-198.6613006591797	-2098.052490234375	531.2721557617188	-188.1781921386719	-1924.648193359375	515.9231567382812	-489.9172668457031	-2079.453369140625	458.5224914550781	-200.0295257568359	-1976.972534179688	432.8098754882812	-479.4701843261719	-2071.087646484375	394.4539794921875	-461.0828552246094	-2109.327392578125	338.7611999511719	-206.5144958496094	-2250.90869140625	220.8481140136719	-468.3644714355469	-2182.605224609375	382.5250549316406	-196.8512420654297	-2304.946044921875	385.3069763183594	-349.6192016601562	-2170.876708984375	257.4461059570312	-229.4048004150391	-2233.841064453125	302.6513061523438	-214.6665649414062	-2240.0302734375	364.8901062011719	-438.3883972167969	-2308.127685546875	147.4694519042969	-249.5997924804688	-2128.148681640625	74.86616516113281	-282.0860595703125	-2376.66943359375	133.4150848388672	-307.2199096679688	-2367.345458984375	99.5248565673828	-333.6530456542969	-2382.712158203125	107.5696105957031	-280.5710754394531	-2314.54150390625	394.1990966796875	-405.1781005859375
44	0.215	-1971.708862304688	1412.7783203125	-492.0678405761719	-1930.964721679688	1402.00341796875	-186.9346618652344	-2037.43017578125	967.5764770507812	-463.5538330078125	-2015.318481445312	974.3984375	-185.0457611083984	-1991.766723632812	922.1453247070312	-440.9113464355469	-2260.71875	398.2359619140625	-372.5331726074219	-1987.427001953125	932.1471557617188	-203.0394287109375	-2111.203857421875	842.7661743164062	-484.5885925292969	-2130.362060546875	849.0938720703125	-160.9286193847656	-2167.614501953125	951.5690307617188	-354.5414733886719	-1938.727661132812	668.330810546875	-505.72509765625	-2081.97900390625	467.6612854003906	-462.9333190917969	-2001.305541992188	629.2383422851562	-478.6490173339844	-1878.870483398438	587.5031127929688	-493.2904357910156	-2204.89599609375	78.48247528076172	-218.6966247558594	-1995.288208007812	510.4317321777344	-485.3795166015625	-1947.699584960938	548.2107543945312	-470.0009155273438	-2005.618896484375	627.4420776367188	-164.0291442871094	-2171.5751953125	157.850830078125	-410.0120239257812	-2083.779052734375	633.4227905273438	-162.3811798095703	-2006.988037109375	532.8756713867188	-199.2411651611328	-2091.4619140625	534.9649047851562	-189.1452026367188	-1903.664428710938	521.5662841796875	-488.5042419433594	-2073.21826171875	461.9711608886719	-200.216064453125	-1955.750854492188	438.1700439453125	-481.2232055664062	-2045.691650390625	394.2830505371094	-460.0140380859375	-2105.580322265625	342.0122985839844	-206.6938629150391	-2218.013427734375	214.2174224853516	-467.6465148925781	-2178.56201171875	386.3945007324219	-197.8378295898438	-2280.70361328125	375.9139709472656	-349.4721984863281	-2167.60107421875	260.9608764648438	-228.2926635742188	-2230.23974609375	307.1803588867188	-214.6884613037109	-2213.820068359375	358.4162292480469	-437.6105651855469	-2305.24267578125	151.6217346191406	-249.5442352294922	-2126.83544921875	74.99932861328125	-282.3079223632812	-2374.105712890625	138.6417694091797	-306.9584655761719	-2365.712890625	104.9148483276367	-333.3470458984375	-2380.906494140625	112.7422943115234	-279.8325805664062	-2289.89697265625	384.9208679199219	-404.4350891113281
45	0.22	-1958.616577148438	1417.576904296875	-492.6845397949219	-1913.166259765625	1406.10205078125	-188.8152618408203	-2020.6201171875	971.7786254882812	-463.2306213378906	-1998.3154296875	978.1024780273438	-185.1067657470703	-1975.777221679688	926.618896484375	-440.7536010742188	-2237.64404296875	390.0424194335938	-372.687744140625	-1971.747436523438	934.6140747070312	-203.7270355224609	-2094.029296875	848.0557861328125	-485.5926513671875	-2114.772705078125	852.948974609375	-161.0909118652344	-2151.759033203125	956.5584716796876	-355.3790283203125	-1918.936889648438	674.0464477539062	-504.9432067871094	-2059.63623046875	465.3244934082031	-461.81640625	-1982.182739257812	634.5797119140625	-479.0662841796875	-1859.56201171875	593.9882202148438	-492.7757568359375	-2204.190185546875	78.8653793334961	-218.9276123046875	-1974.5908203125	512.2233276367188	-484.3489379882812	-1926.6435546875	554.3729248046875	-469.1553039550781	-1995.860107421875	630.0408325195312	-165.1960601806641	-2136.48046875	153.6903991699219	-409.6561279296875	-2073.021728515625	637.2395629882812	-162.4995880126953	-1999.855834960938	534.5394287109375	-200.3032836914062	-2082.980712890625	538.7409057617188	-189.0660400390625	-1883.14013671875	526.9459838867188	-487.3397827148438	-2068.22412109375	465.3672485351562	-201.0252685546875	-1932.671264648438	440.8963012695312	-479.9778442382812	-2021.50732421875	393.7436218261719	-459.3966369628906	-2100.923095703125	345.6231689453125	-206.6533966064453	-2185.12451171875	208.4711151123047	-467.278564453125	-2173.2890625	390.9422302246094	-197.6181640625	-2255.5166015625	365.2878723144531	-350.5497131347656	-2163.545654296875	265.2949523925781	-228.6929779052734	-2225.717041015625	311.7543029785156	-214.7447204589844	-2188.3330078125	352.0053100585938	-437.2856140136719	-2302.364990234375	156.3074340820312	-248.6120147705078	-2125.960205078125	74.42847442626953	-281.7935485839844	-2370.922607421875	144.4685363769531	-306.2567138671875	-2362.712646484375	110.4005355834961	-332.9711303710938	-2378.02490234375	117.8237152099609	-279.1699523925781	-2265.393310546875	374.5768737792969	-404.2949523925781
